<svg xmlns="http://www.w3.org/2000/svg" viewBox="0 0 205 205" style="enable-background:new 0 0 205 205" xml:space="preserve"><path d="M162.1 102.8c-7.3 0-13.3 6-13.3 13.3v59.8H29.1V56.2h59.8c7.3 0 13.3-6 13.3-13.3 0-7.3-6-13.3-13.3-13.3H15.8c-7.3 0-13.3 6-13.3 13.3v146.3c0 7.3 6 13.3 13.3 13.3h146.3c7.3 0 13.3-6 13.3-13.3v-73.1c0-7.4-6-13.3-13.3-13.3z"/><path d="M189.2 2.5h-59.8c-7.3 0-13.3 6-13.3 13.3 0 7.3 6 13.3 13.3 13.3h27.7L88.9 97.3c-5.2 5.2-5.2 13.6 0 18.8 5.2 5.2 13.6 5.2 18.8 0l68.2-68.2v27.7c0 7.3 6 13.3 13.3 13.3 7.3 0 13.3-6 13.3-13.3V15.8c0-7.3-6-13.3-13.3-13.3zm-13.3 26.6z"/></svg>