<?xml version="1.0" encoding="utf-8"?>
<!-- Generator: Adobe Illustrator 16.0.0, SVG Export Plug-In . SVG Version: 6.00 Build 0)  -->
<!DOCTYPE svg PUBLIC "-//W3C//DTD SVG 1.1//EN" "http://www.w3.org/Graphics/SVG/1.1/DTD/svg11.dtd">
<svg version="1.1" id="Layer_1" xmlns="http://www.w3.org/2000/svg" xmlns:xlink="http://www.w3.org/1999/xlink" x="0px" y="0px"
	 width="550px" height="400px" viewBox="0 0 550 400" enable-background="new 0 0 550 400" xml:space="preserve">
<rect fill="#BEC1C1" width="550" height="400"/>
<path fill="#FFFFFF" d="M309.145,186.411c-10.098,5.672-21.739,8.922-34.146,8.922c-12.406,0-24.047-3.249-34.144-8.921
	c-13.246,0.745-96.563,8.417-96.563,83.591v52.021c13.709,6.979,29.062,13.505,45.666,18.869v-41.81l6.087,43.706
	c24.215,7.265,50.906,11.961,78.955,11.961c28.049,0,54.739-4.696,78.955-11.961l6.087-43.707v41.811
	c16.604-5.364,31.957-11.89,45.666-18.869v-52.021C405.708,194.825,322.387,187.155,309.145,186.411z"/>
<g>
	<g>
		<circle fill="#FFFFFF" cx="275" cy="108.833" r="69.834"/>
	</g>
	<g>
		<circle fill="#FFFFFF" cx="275" cy="108.833" r="69.834"/>
	</g>
</g>
</svg>
